<svg xmlns="http://www.w3.org/2000/svg" viewBox="0 0 1600 900" preserveAspectRatio="xMidYMid slice">
  <defs>
    <linearGradient id="sky" x1="0" y1="0" x2="0" y2="1">
      <stop offset="0" stop-color="#040711"/>
      <stop offset="1" stop-color="#0a1220"/>
    </linearGradient>
    <linearGradient id="a1" x1="0" y1="0" x2="1" y2="0">
      <stop offset="0" stop-color="#22e6a8" stop-opacity="0"/>
      <stop offset="0.5" stop-color="#22e6a8" stop-opacity="0.55"/>
      <stop offset="1" stop-color="#22e6a8" stop-opacity="0"/>
    </linearGradient>
    <linearGradient id="a2" x1="0" y1="0" x2="1" y2="0">
      <stop offset="0" stop-color="#7a5cff" stop-opacity="0"/>
      <stop offset="0.5" stop-color="#7a5cff" stop-opacity="0.45"/>
      <stop offset="1" stop-color="#7a5cff" stop-opacity="0"/>
    </linearGradient>
  </defs>
  <rect width="1600" height="900" fill="url(#sky)"/>
  <path d="M-100 200 Q 400 80 800 220 T 1700 180 L1700 380 Q 1200 260 800 400 T -100 380 Z" fill="url(#a1)"/>
  <path d="M-100 340 Q 450 220 850 360 T 1700 320 L1700 520 Q 1200 400 800 540 T -100 520 Z" fill="url(#a2)"/>
  <path d="M0 720 L1600 720 L1600 900 L0 900 Z" fill="#050810"/>
  <path d="M0 760 Q 400 700 800 760 T 1600 750" stroke="#1c2a3a" stroke-width="2" fill="none" opacity="0.6"/>
</svg>
